<svg width="143" height="83" viewBox="0 0 143 83" fill="none" xmlns="http://www.w3.org/2000/svg">
<g clip-path="url(#clip0_151_556)">
<path d="M10.692 79.759C9.78516 80.7454 8.78282 81.2621 7.73276 81.2621C6.68269 81.2621 5.87127 80.8864 5.15532 80.1348C4.43936 79.3832 4.10525 78.4908 4.10525 77.4104C4.10525 76.33 4.43936 75.4845 5.15532 74.733C5.87127 73.9814 6.68269 73.6057 7.68503 73.6057C8.68736 73.6057 9.6897 74.1223 10.692 75.0618L10.9307 75.2967L12.0285 74.2163L11.8376 73.9814C10.7398 72.7132 9.35559 72.1025 7.73276 72.1025C6.25312 72.1025 5.01213 72.6192 4.00979 73.6526C3.00746 74.686 2.48242 75.9073 2.48242 77.3634C2.48242 78.8196 3.00746 80.0878 4.00979 81.1212C4.91667 82.0137 5.96673 82.5304 7.25545 82.6713V82.7183H7.6373C9.2124 82.7183 10.6443 82.0607 11.8376 80.7454L12.0285 80.5106L10.883 79.4772L10.692 79.759Z" fill="#4285F4"/>
<path d="M12.6973 73.7939H16.3248V82.5308H17.8999V73.7939H21.4796V72.3848H12.6973V73.7939Z" fill="#4285F4"/>
<path d="M24.7724 80.0882V72.3848H23.1973V82.5308H24.5814L30.6909 74.8273V82.5308H32.266V72.3848H30.8341L24.7724 80.0882Z" fill="#4285F4"/>
<path d="M36.6098 73.1833C36.6098 74.4046 36.5621 75.5319 36.5143 76.4714C36.4666 77.4108 36.3711 78.1624 36.2757 78.726C36.1802 79.2897 36.0848 79.7594 35.9416 80.1352C35.8461 80.464 35.7029 80.6989 35.5597 80.7928C35.3688 80.9807 35.2256 81.0277 35.1302 81.0746C35.0347 81.1216 34.8438 81.1216 34.6051 81.1216C34.5097 81.1216 34.3187 81.1216 33.9369 81.0277L33.6028 80.9337L33.3164 82.3899L33.6028 82.4838C33.9846 82.5777 34.3665 82.6247 34.7483 82.6247H34.8915C35.2733 82.6247 35.6075 82.5777 35.8461 82.4838C36.1802 82.3899 36.4666 82.155 36.8007 81.7792C37.0871 81.4034 37.3257 80.9337 37.5167 80.2761C37.6599 79.6655 37.8031 78.82 37.8985 77.7396C37.994 76.7062 38.0417 75.391 38.0417 73.8409H42.1465V82.5308H43.7216V72.3848H36.6098V73.1833Z" fill="#4285F4"/>
<path d="M53.6503 76.8002C52.8866 76.2835 51.932 76.0486 50.8342 76.0486H48.2567V72.3848H46.6816V82.5308H50.9774C52.1229 82.5308 53.0298 82.202 53.7457 81.6383C54.4617 81.0277 54.8435 80.2291 54.8435 79.1957C54.8435 78.1154 54.4617 77.3169 53.6503 76.8002ZM48.2567 77.4578H50.7387C51.5024 77.4578 52.1229 77.5987 52.5525 77.9275C52.982 78.2093 53.173 78.6321 53.173 79.1488C53.173 79.7594 52.982 80.1822 52.5525 80.511C52.1229 80.8398 51.5501 81.0277 50.7864 81.0277H48.209V77.4578H48.2567Z" fill="#4285F4"/>
<path d="M68.0152 72.1494V82.7651H64.9604V74.7329H61.2852V82.7651H58.2305V72.1494H68.0152Z" fill="#4285F4"/>
<path d="M80.2354 81.4033C79.1376 82.4837 77.7534 83.0004 76.0829 83.0004C74.4123 83.0004 73.0281 82.4837 71.9303 81.4033C70.8325 80.323 70.2598 79.0547 70.2598 77.4577C70.2598 75.8606 70.8325 74.5924 71.9303 73.559C73.0281 72.4786 74.4123 71.9619 76.0829 71.9619C77.7534 71.9619 79.1376 72.4786 80.2354 73.559C81.3332 74.6393 81.906 75.9076 81.906 77.5046C81.906 79.1017 81.3332 80.323 80.2354 81.4033ZM76.0829 80.4169C76.942 80.4169 77.6102 80.1351 78.0875 79.5714C78.6126 79.0078 78.8512 78.3032 78.8512 77.5046C78.8512 76.7061 78.5648 76.0015 78.0398 75.4379C77.5148 74.8742 76.8465 74.5924 75.9874 74.5924C75.1283 74.5924 74.46 74.8742 73.9827 75.4379C73.5054 76.0015 73.219 76.7061 73.219 77.5046C73.219 78.3032 73.5054 79.0078 74.0305 79.5714C74.5555 80.1351 75.2714 80.4169 76.0829 80.4169Z" fill="#4285F4"/>
<path d="M92.5014 72.1494V74.7329H89.3035V82.7651H86.201V74.7329H83.0508V72.1494H92.5014Z" fill="#4285F4"/>
<path d="M103.622 81.4033C102.524 82.4837 101.14 83.0004 99.4696 83.0004C97.799 83.0004 96.4148 82.4837 95.317 81.4033C94.2192 80.323 93.6465 79.0547 93.6465 77.4577C93.6465 75.8606 94.2192 74.5924 95.317 73.559C96.4148 72.4786 97.799 71.9619 99.4696 71.9619C101.14 71.9619 102.524 72.4786 103.622 73.559C104.72 74.6393 105.293 75.9076 105.293 77.5046C105.293 79.1017 104.768 80.323 103.622 81.4033ZM99.5173 80.4169C100.376 80.4169 101.045 80.1351 101.522 79.5714C102.047 79.0078 102.286 78.3032 102.286 77.5046C102.286 76.7061 101.999 76.0015 101.474 75.4379C100.949 74.8742 100.281 74.5924 99.4219 74.5924C98.5627 74.5924 97.8945 74.8742 97.4172 75.4379C96.9399 76.0015 96.6535 76.7061 96.6535 77.5046C96.6535 78.3032 96.9399 79.0078 97.4649 79.5714C97.9899 80.1351 98.7059 80.4169 99.5173 80.4169Z" fill="#4285F4"/>
<path d="M108.825 72.1494H117.464V82.7651H114.409V74.7329H111.688C111.688 76.1421 111.641 77.3164 111.545 78.2558C111.45 79.2422 111.307 79.9938 111.116 80.6044C110.925 81.2151 110.686 81.6848 110.352 82.0136C110.018 82.3424 109.636 82.5773 109.254 82.6712C108.872 82.7651 108.395 82.8591 107.822 82.8591C107.25 82.8591 106.772 82.8121 106.295 82.6712L106.486 80.2286C106.724 80.2756 106.915 80.2756 107.154 80.2756C107.488 80.2756 107.727 80.1817 107.918 80.0408C108.109 79.8998 108.3 79.5241 108.443 79.0074C108.634 78.4907 108.729 77.6452 108.777 76.5178C108.825 75.3905 108.825 73.9813 108.825 72.1494Z" fill="#4285F4"/>
<path d="M120.232 82.7651V72.1494H123.287V76.5178L127.153 72.1494H130.685L126.724 76.5178L131.163 82.7651H127.535L124.671 78.7255L123.287 80.2286V82.7651H120.232Z" fill="#4285F4"/>
<path d="M135.554 82.9533C134.504 82.9533 133.597 82.6715 132.929 82.0609C132.213 81.4972 131.879 80.6987 131.879 79.6653C131.879 78.5379 132.261 77.6924 133.072 77.1288C133.836 76.5651 134.934 76.2833 136.222 76.2833C137.129 76.2833 137.988 76.4242 138.848 76.706V76.5181C138.848 75.2029 138.084 74.5923 136.556 74.5923C135.65 74.5923 134.647 74.7802 133.597 75.1559L132.834 72.8543C134.17 72.2906 135.554 72.0088 137.034 72.0088C138.657 72.0088 139.85 72.3846 140.661 73.1831C141.425 73.9347 141.807 75.062 141.807 76.5651V82.7185H138.848V81.5911C137.988 82.4836 136.891 82.9533 135.554 82.9533ZM136.461 80.8865C137.177 80.8865 137.75 80.6987 138.179 80.3699C138.609 80.041 138.848 79.5713 138.848 79.0546V78.5379C138.275 78.2561 137.607 78.1622 136.891 78.1622C136.222 78.1622 135.697 78.3031 135.315 78.5379C134.934 78.8198 134.743 79.1486 134.743 79.6653C134.743 80.041 134.886 80.3699 135.22 80.6047C135.554 80.7456 135.984 80.8865 136.461 80.8865Z" fill="#4285F4"/>
<path fill-rule="evenodd" clip-rule="evenodd" d="M0 31.3301C16.6101 88.0256 86.6305 24.5191 143 60.5468C81.2847 10.5683 33.5544 78.6312 0 31.3301Z" fill="#4285F4"/>
<path d="M11.3594 31.8472L42.1454 1.50311L43.6728 0L45.3434 1.3622L79.7092 29.6865L76.7022 33.2094L43.9592 6.24731L14.6528 35.0883L11.3594 31.8472Z" fill="#4285F4"/>
<path fill-rule="evenodd" clip-rule="evenodd" d="M51.2619 30.7201V34.9945C51.2619 35.6991 50.6892 36.2628 49.9732 36.2628H45.6298V30.7201H51.2619ZM45.6298 23.4863H49.9732C50.6892 23.4863 51.2619 24.05 51.2619 24.7546V29.0291H45.6298V23.4863ZM43.9115 30.7201V36.2628H39.568C38.8521 36.2628 38.2793 35.6991 38.2793 34.9945V30.7201H43.9115ZM39.568 23.4863H43.9115V29.0291H38.2793V24.7546C38.2793 24.05 38.8521 23.4863 39.568 23.4863Z" fill="#4285F4"/>
</g>
<defs>
<clipPath id="clip0_151_556">
<rect width="143" height="83" fill="white"/>
</clipPath>
</defs>
</svg>
